<svg width="99" height="26" fill="none" xmlns="http://www.w3.org/2000/svg"><path d="M13 19.302l5.509-1.396L20.811 25 13 19.302zm12.679-9.17H15.98L13 1l-2.982 9.132H.32l7.85 5.66-2.982 9.132 7.85-5.66 4.83-3.471 7.81-5.66z" fill="#3FBB7D"/><path d="M35.515 6.625V18h-1.946V6.625h1.946zm3.57 0v1.563H30.03V6.625h9.055zm2.64 4.531V18h-1.882V9.547h1.797l.086 1.61zm2.587-1.664l-.016 1.75a4.904 4.904 0 00-.766-.063c-.323 0-.607.048-.851.141-.245.089-.45.22-.617.39a1.72 1.72 0 00-.375.61c-.089.24-.141.508-.157.805l-.43.031c0-.531.053-1.023.157-1.476a4.02 4.02 0 01.469-1.196c.213-.343.479-.612.797-.804.322-.193.695-.29 1.117-.29.114 0 .237.011.367.032.135.02.237.044.305.07zm6.265 6.516V9.547h1.89V18h-1.78l-.11-1.992zm.266-1.758l.633-.016c0 .568-.063 1.091-.188 1.57a3.641 3.641 0 01-.578 1.243c-.26.349-.594.622-1 .82-.406.193-.893.29-1.461.29-.411 0-.789-.06-1.133-.18a2.323 2.323 0 01-.89-.555c-.245-.25-.435-.576-.57-.977-.136-.4-.204-.88-.204-1.437V9.547h1.883v5.476c0 .308.036.566.11.774.072.203.171.367.296.492.125.125.271.214.438.266.166.052.343.078.531.078.536 0 .958-.104 1.266-.313.312-.213.533-.5.664-.86.135-.358.203-.762.203-1.21zm8.297 1.46a.943.943 0 00-.141-.507c-.094-.156-.273-.297-.539-.422-.26-.125-.646-.24-1.156-.344a9.969 9.969 0 01-1.235-.351c-.37-.14-.687-.31-.953-.508a2.139 2.139 0 01-.617-.703 1.947 1.947 0 01-.219-.938c0-.343.076-.669.227-.976.15-.307.367-.578.648-.813a3.167 3.167 0 011.024-.554c.406-.136.86-.203 1.36-.203.707 0 1.314.12 1.82.359.51.234.9.555 1.171.96.271.402.407.855.407 1.36h-1.883c0-.224-.058-.432-.172-.625a1.196 1.196 0 00-.5-.476c-.224-.125-.505-.188-.844-.188-.323 0-.591.052-.805.156-.208.1-.364.23-.468.391a.998.998 0 00-.149.531c0 .141.026.269.078.383a.9.9 0 00.282.305c.13.088.307.172.53.25.23.078.517.153.86.226.646.136 1.2.31 1.664.524.469.208.828.479 1.078.812.25.329.375.745.375 1.25 0 .375-.08.72-.242 1.032a2.339 2.339 0 01-.687.804 3.453 3.453 0 01-1.086.524 4.89 4.89 0 01-1.407.187c-.765 0-1.413-.135-1.945-.406-.531-.276-.935-.628-1.21-1.055a2.497 2.497 0 01-.407-1.343h1.82c.021.348.117.627.29.835.176.204.395.352.656.446.265.088.539.133.82.133.338 0 .622-.045.852-.133.229-.094.403-.219.523-.375a.894.894 0 00.18-.547zm7.367-6.163v1.375H61.74V9.547h4.766zm-3.39-2.07h1.882v8.187c0 .26.037.461.11.602a.585.585 0 00.32.273c.135.047.294.07.476.07.13 0 .255-.007.375-.023s.216-.031.29-.047l.007 1.438a4.827 4.827 0 01-.547.125 4.023 4.023 0 01-.703.054c-.432 0-.815-.075-1.148-.226a1.691 1.691 0 01-.782-.758c-.187-.35-.28-.813-.28-1.39V7.476zm6.734 3.695V21.25h-1.883V9.547h1.734l.149 1.625zm5.507 2.523v.164c0 .615-.073 1.185-.218 1.711a4.185 4.185 0 01-.633 1.367 2.914 2.914 0 01-1.024.899c-.406.213-.875.32-1.406.32-.526 0-.987-.096-1.383-.289a2.834 2.834 0 01-.992-.836 4.54 4.54 0 01-.656-1.265 8.129 8.129 0 01-.344-1.61v-.633c.068-.62.182-1.182.344-1.687.167-.505.385-.94.656-1.305.271-.364.602-.646.992-.844.391-.197.847-.296 1.367-.296.532 0 1.003.104 1.415.312.411.203.757.495 1.039.875.28.375.492.828.632 1.36.141.525.211 1.111.211 1.757zm-1.882.164v-.164c0-.39-.037-.752-.11-1.086a2.836 2.836 0 00-.344-.89 1.683 1.683 0 00-.601-.594c-.24-.146-.529-.219-.867-.219-.334 0-.62.057-.86.172-.24.11-.44.263-.601.461-.162.198-.287.43-.375.695-.089.26-.151.545-.188.852v1.516c.063.375.17.718.32 1.03.152.313.365.563.641.75.281.183.64.274 1.078.274.339 0 .628-.073.867-.218.24-.146.435-.347.586-.602.157-.26.271-.56.344-.899.073-.338.11-.697.11-1.078zm5.5-4.312V18h-1.891V9.547h1.89zM76.96 7.328c0-.286.094-.523.281-.71.193-.194.459-.29.797-.29.333 0 .596.096.79.29a.95.95 0 01.288.71.94.94 0 01-.289.703c-.193.188-.456.281-.789.281-.338 0-.604-.093-.797-.28a.954.954 0 01-.281-.704zM83.054 6v12h-1.89V6h1.89zm1.703 7.867v-.18c0-.609.088-1.174.265-1.695.177-.526.433-.982.766-1.367.339-.39.75-.693 1.234-.906.49-.219 1.042-.328 1.657-.328.62 0 1.172.109 1.656.328.49.213.904.515 1.242.906.339.385.597.841.774 1.367.177.521.265 1.086.265 1.695v.18c0 .61-.088 1.175-.265 1.695a4.054 4.054 0 01-.774 1.368c-.338.385-.75.687-1.234.906-.485.213-1.034.32-1.649.32-.62 0-1.174-.107-1.664-.32a3.582 3.582 0 01-1.234-.906 4.056 4.056 0 01-.774-1.367 5.234 5.234 0 01-.265-1.696zm1.883-.18v.18c0 .38.039.74.117 1.078.078.339.2.636.367.89.167.256.38.457.64.602.261.146.571.22.93.22.35 0 .651-.074.907-.22.26-.145.474-.346.64-.601.167-.255.29-.552.367-.89a4.5 4.5 0 00.125-1.079v-.18c0-.374-.041-.729-.125-1.062a2.728 2.728 0 00-.375-.898 1.792 1.792 0 00-.64-.61 1.762 1.762 0 00-.914-.226c-.355 0-.662.075-.922.226a1.813 1.813 0 00-.633.61c-.167.26-.289.56-.367.898a4.646 4.646 0 00-.117 1.063zm11.43-4.14v1.375h-4.766V9.547h4.765zm-3.391-2.07h1.882v8.187c0 .26.037.461.11.602a.585.585 0 00.32.273c.136.047.294.07.477.07.13 0 .255-.007.375-.023s.216-.031.289-.047l.008 1.438a4.827 4.827 0 01-.547.125 4.023 4.023 0 01-.703.054c-.433 0-.816-.075-1.149-.226a1.691 1.691 0 01-.781-.758c-.188-.35-.281-.813-.281-1.39V7.476z" fill="#252C44"/></svg>