<svg width="184" height="48" fill="none" xmlns="http://www.w3.org/2000/svg"><g clip-path="url(#clip0)"><path fill-rule="evenodd" clip-rule="evenodd" d="M68.207 16.308c.322 0 .57-.27.57-.584a.578.578 0 00-.57-.584c-.307 0-.555.27-.555.584 0 .314.248.584.555.584zm6.17 0c.306 0 .555-.27.555-.584 0-.315-.249-.584-.556-.584-.321 0-.57.27-.57.584 0 .314.249.584.57.584zm-11.871 2.756c.818 0 1.49.69 1.49 1.528v6.442c0 .854-.657 1.543-1.49 1.543-.834 0-1.506-.69-1.506-1.543v-6.442c0-.839.672-1.528 1.506-1.528zm15.496.285v9.977c0 .913-.717 1.647-1.594 1.647h-1.096v3.4c0 .855-.673 1.544-1.506 1.544s-1.506-.69-1.506-1.543v-3.4h-2.017v3.4c0 .854-.672 1.543-1.506 1.543-.818 0-1.49-.69-1.49-1.543l-.016-3.4H66.19c-.892 0-1.608-.735-1.608-1.648v-9.977h13.42zm-3.392-6.067c2.047 1.079 3.436 3.146 3.436 5.528H64.523c0-2.382 1.389-4.45 3.45-5.528l-1.038-1.962c-.058-.105-.029-.24.073-.3.103-.045.234-.015.293.09l1.052 1.977a7.092 7.092 0 012.939-.629c1.052 0 2.046.225 2.938.63l1.053-1.978c.058-.105.19-.135.292-.09.102.06.132.195.073.3l-1.038 1.962zm6.973 7.31v6.442c0 .854-.672 1.543-1.505 1.543-.82 0-1.492-.69-1.492-1.543v-6.442c0-.854.673-1.528 1.492-1.528a1.51 1.51 0 011.505 1.528z" fill="#fff"/></g><path d="M89.166 17.416v-6.082h1.844c.551 0 1.04.12 1.466.36.429.239.76.579.995 1.019.234.44.352.944.352 1.512v.305c0 .576-.12 1.083-.356 1.52-.235.438-.57.775-1.008 1.011-.434.237-.933.355-1.496.355h-1.797zm1.085-5.23v4.387h.707c.57 0 1.005-.173 1.308-.518.306-.348.462-.847.467-1.496v-.338c0-.66-.147-1.164-.441-1.512-.295-.349-.722-.523-1.282-.523h-.76zm4.356 2.929c0-.443.09-.841.27-1.195.18-.357.433-.63.76-.819a2.17 2.17 0 011.123-.288c.626 0 1.133.196 1.522.589.391.393.603.913.634 1.562l.005.238c0 .446-.089.844-.266 1.195a1.9 1.9 0 01-.755.815 2.187 2.187 0 01-1.132.288c-.654 0-1.179-.212-1.573-.635-.392-.426-.588-.993-.588-1.7v-.05zm1.042.087c0 .466.099.83.296 1.095.197.262.472.393.823.393.352 0 .625-.134.82-.401.196-.268.295-.66.295-1.174 0-.457-.101-.819-.304-1.086a.968.968 0 00-.82-.401c-.34 0-.61.132-.81.396-.2.262-.3.655-.3 1.178zm8.228.815l.738-3.12h1.016l-1.265 4.52h-.857l-.995-3.104-.978 3.103h-.857l-1.27-4.52h1.017l.75 3.088.952-3.088h.785l.964 3.121zm3.418-3.121l.03.523c.343-.404.793-.606 1.35-.606.967 0 1.458.539 1.475 1.617v2.986h-1.042v-2.928c0-.287-.064-.498-.193-.635-.125-.14-.333-.209-.621-.209-.42 0-.733.185-.939.556v3.216h-1.042v-4.52h.982zm5.029 4.52h-1.042V11h1.042v6.416zm.944-2.301c0-.443.09-.841.27-1.195.18-.357.433-.63.759-.819.325-.192.7-.288 1.123-.288.626 0 1.133.196 1.522.589.392.393.603.913.635 1.562l.004.238c0 .446-.089.844-.266 1.195a1.9 1.9 0 01-.754.815 2.19 2.19 0 01-1.132.288c-.655 0-1.18-.212-1.574-.635-.392-.426-.587-.993-.587-1.7v-.05zm1.041.087c0 .466.099.83.296 1.095.198.262.472.393.824.393.351 0 .624-.134.819-.401.197-.268.295-.66.295-1.174 0-.457-.101-.819-.304-1.086a.968.968 0 00-.819-.401c-.34 0-.61.132-.81.396-.201.262-.301.655-.301 1.178zm6.925 2.214a1.517 1.517 0 01-.12-.422 1.641 1.641 0 01-1.218.506c-.466 0-.846-.13-1.14-.389a1.228 1.228 0 01-.442-.96c0-.482.183-.851.549-1.107.369-.26.895-.389 1.578-.389h.639v-.296c0-.234-.067-.42-.202-.56-.134-.142-.338-.213-.613-.213a.928.928 0 00-.583.175.528.528 0 00-.227.439h-1.042c0-.248.084-.48.253-.694.168-.217.397-.387.686-.51.291-.122.616-.183.973-.183.543 0 .976.134 1.299.401.323.265.489.638.498 1.12v2.038c0 .407.058.731.176.973v.072h-1.064zm-1.145-.73c.206 0 .399-.05.579-.147a.992.992 0 00.412-.393v-.852h-.562c-.386 0-.676.066-.87.197a.63.63 0 00-.292.555c0 .195.066.351.197.468.135.114.313.171.536.171zm2.929-1.563c0-.696.166-1.255.497-1.675.332-.423.776-.635 1.334-.635.491 0 .889.167 1.192.501V11h1.042v6.416h-.944l-.051-.467c-.312.367-.728.551-1.248.551-.543 0-.983-.213-1.32-.64-.335-.425-.502-1.005-.502-1.737zm1.042.088c0 .46.09.819.27 1.078.183.256.442.384.776.384.426 0 .738-.185.935-.556v-1.93c-.192-.362-.5-.543-.926-.543-.338 0-.598.131-.781.393-.183.259-.274.65-.274 1.174zM97.08 32.378h-4.405l-.837 2.456h-2.672l4.54-11.917h2.327l4.565 11.917h-2.672l-.846-2.456zm-3.727-1.988h3.049l-1.533-4.461-1.516 4.46zm10.896.245v4.199h-2.512V22.917h4.757c.915 0 1.719.164 2.412.491.698.327 1.234.794 1.608 1.4.374.6.561 1.285.561 2.054 0 1.168-.411 2.09-1.231 2.766-.816.671-1.946 1.007-3.392 1.007h-2.203zm0-1.989h2.245c.664 0 1.169-.153 1.516-.458.351-.306.527-.742.527-1.31 0-.584-.176-1.055-.527-1.416-.352-.36-.838-.545-1.458-.556h-2.303v3.74zm12.378 1.408l-1.306 1.375v3.405h-2.513V22.917h2.513v5.402l1.105-1.482 3.107-3.92h3.091l-4.33 5.295 4.455 6.622h-2.989l-3.133-4.78z" fill="#fff"/><defs><clipPath id="clip0"><path fill="#fff" transform="translate(61 11)" d="M0 0h20.583v26H0z"/></clipPath></defs></svg>