<svg width="184" height="48" fill="none" xmlns="http://www.w3.org/2000/svg"><path d="M69.254 10.026c1.509-.118 2.837 1.204 2.938 2.975.02.213 0 .425-.02.638 0 2.337-1.067 3.66-2.918 3.66H67v-7.273h2.254zm-1.288 6.257h1.167c1.067.071 1.992-.897 2.073-2.149 0-.165 0-.306-.02-.472.14-1.251-.604-2.408-1.67-2.597-.121-.024-.242-.024-.383-.024h-1.167v5.242zm6.334-1.597c-.114-1.31.734-2.47 1.865-2.578 1.15-.129 2.167.838 2.261 2.127.019.15.019.3 0 .45.113 1.311-.716 2.471-1.865 2.6-1.15.129-2.168-.816-2.28-2.127 0-.171 0-.322.018-.472zm3.24 0c0-1.074-.433-1.719-1.168-1.719-.754 0-1.168.645-1.168 1.719 0 1.095.414 1.718 1.168 1.718s1.168-.623 1.168-1.718zm7.76 2.611h-1.078l-1.08-3.839h-.089l-1.078 3.839h-1.056l-1.438-5.2h1.056l.943 3.972h.068l1.078-3.972h.989l1.078 3.972h.09l.944-3.972h1.033l-1.46 5.2zm2.52-5.106h.92V13h.063c.251-.59.836-.96 1.463-.895.878-.065 1.631.611 1.694 1.527 0 .131 0 .24-.021.371v3.295h-.962V14.22c0-.807-.334-1.221-1.045-1.221-.606-.022-1.129.458-1.17 1.112v3.142H87.8l.02-5.062zM93 10.019h1.04v7.28H93v-7.28zm3.139 4.667c-.113-1.31.735-2.47 1.866-2.578 1.15-.129 2.167.838 2.261 2.127.019.15.019.3 0 .45.113 1.311-.735 2.471-1.866 2.6-1.15.129-2.167-.838-2.28-2.127 0-.171 0-.322.019-.472zm3.241 0c0-1.074-.433-1.719-1.168-1.719-.754 0-1.169.645-1.169 1.719 0 1.095.415 1.718 1.169 1.718.735 0 1.168-.623 1.168-1.718zm1.962 1.116c0-.905.661-1.422 1.856-1.508l1.344-.086v-.431c0-.539-.342-.819-1.024-.819-.555 0-.918.194-1.046.56h-.96c.107-.861.896-1.421 2.027-1.421 1.237 0 1.941.624 1.941 1.68v3.425h-.938v-.71h-.086a1.69 1.69 0 01-1.493.796 1.496 1.496 0 01-1.643-1.357c.022-.021.022-.086.022-.129zm3.2-.43v-.432l-1.216.087c-.683.043-1.003.28-1.003.732 0 .452.384.71.917.71a1.173 1.173 0 001.28-1.055c0-.021 0-.021.022-.043zm3.018-.76c0-1.642.729-2.663 1.86-2.663.575-.022 1.111.333 1.361.91h.057v-2.84h.882v7.19h-.843v-.821h-.077c-.288.577-.824.932-1.4.91-1.131 0-1.84-1.043-1.84-2.686zm.901 0c0 1.088.441 1.754 1.189 1.754.747 0 1.207-.666 1.207-1.754 0-1.087-.46-1.753-1.207-1.753-.729 0-1.189.666-1.189 1.753zm7.442.074c-.141-1.31.919-2.47 2.332-2.578 1.437-.129 2.709.838 2.827 2.127.024.15.024.3 0 .45.142 1.311-.895 2.471-2.332 2.6-1.437.129-2.709-.816-2.85-2.127.023-.171.023-.322.023-.472zm4.076 0c0-1.074-.542-1.719-1.461-1.719-.942 0-1.46.645-1.46 1.719 0 1.095.518 1.718 1.46 1.718.919 0 1.461-.623 1.461-1.718zm2.162-2.495h.92V13h.063c.25-.59.836-.96 1.463-.895.878-.065 1.63.611 1.693 1.527 0 .131 0 .24-.021.371v3.295h-.961V14.22c0-.807-.335-1.221-1.046-1.221-.606-.022-1.128.458-1.17 1.112v3.142h-.962v-5.062h.021zm10.223-1.132v1.26h1.172v.834h-1.172v2.564c0 .513.234.748.774.748.14 0 .281 0 .422-.021v.812a5.44 5.44 0 01-.587.043c-1.196 0-1.665-.385-1.665-1.347v-2.8h-.868v-.833h.868v-1.26h1.056zm2.257-1.04h.942v2.876h.082c.267-.607.84-.989 1.455-.944.861-.045 1.599.674 1.66 1.618 0 .112 0 .224-.02.314v3.37h-.964v-3.078c0-.831-.348-1.258-1.024-1.258-.615-.045-1.148.45-1.209 1.123v3.26h-.943l.021-7.28zm10.34 5.829c-.255.943-1.08 1.543-1.982 1.436-1.138.043-2.1-.964-2.139-2.208 0-.128 0-.257.019-.364-.157-1.265.648-2.422 1.806-2.594.098-.021.196-.021.294-.021 1.276 0 2.041.943 2.041 2.508v.343h-3.218v.064c-.059.729.431 1.372 1.099 1.436h.117c.432.065.864-.171 1.08-.6h.883zm-3.179-1.608h2.315c.039-.664-.412-1.243-1.02-1.286h-.098c-.648 0-1.178.557-1.178 1.265-.019 0-.019 0-.019.021zM75.196 31.042h-4.922l-1.185 3.504H67l4.66-12.928h2.17l4.66 12.928h-2.11l-1.184-3.504zm-4.4-1.611h3.898l-1.929-5.678h-.06l-1.908 5.678zm17.758.404c0 2.94-1.567 4.812-3.917 4.812a3.183 3.183 0 01-2.953-1.65h-.04v4.67h-1.928V25.124h1.868v1.57h.04a3.344 3.344 0 012.993-1.67c2.37 0 3.937 1.892 3.937 4.812zm-1.988 0c0-1.913-.985-3.162-2.491-3.162-1.467 0-2.47 1.29-2.47 3.162 0 1.893.983 3.181 2.47 3.181 1.506-.02 2.49-1.268 2.49-3.181zm12.353 0c0 2.94-1.567 4.812-3.918 4.812a3.183 3.183 0 01-2.952-1.65h-.04v4.67H90.08V25.124h1.868v1.57h.04a3.343 3.343 0 012.993-1.67c2.35 0 3.938 1.892 3.938 4.812zm-1.989 0c0-1.913-.984-3.162-2.49-3.162-1.467 0-2.472 1.29-2.472 3.162 0 1.893.985 3.181 2.471 3.181 1.507-.02 2.491-1.268 2.491-3.181zm8.819 1.108c.141 1.289 1.386 2.135 3.094 2.135 1.627 0 2.792-.846 2.792-1.994 0-1.006-.703-1.61-2.37-2.013l-1.668-.403c-2.37-.564-3.475-1.691-3.475-3.484 0-2.235 1.949-3.765 4.701-3.765 2.732 0 4.6 1.53 4.66 3.765h-1.949c-.12-1.288-1.185-2.074-2.731-2.074-1.547 0-2.612.786-2.612 1.933 0 .907.683 1.45 2.35 1.873l1.427.342c2.651.625 3.756 1.692 3.756 3.585 0 2.416-1.928 3.926-4.982 3.926-2.852 0-4.801-1.49-4.921-3.826h1.928zm12.092-8.054v2.235h1.788v1.53h-1.788v5.195c0 .806.362 1.188 1.145 1.188.221 0 .422-.02.643-.04v1.53c-.362.06-.703.101-1.065.08-1.908 0-2.651-.724-2.651-2.536v-5.397h-1.366v-1.53h1.366v-2.235h1.928v-.02zm2.833 6.948c0-2.96 1.747-4.832 4.459-4.832 2.732 0 4.46 1.873 4.46 4.832 0 2.98-1.728 4.833-4.46 4.833s-4.459-1.852-4.459-4.833zm6.95 0c0-2.033-.924-3.241-2.491-3.241-1.567 0-2.491 1.208-2.491 3.241 0 2.034.924 3.243 2.491 3.243 1.567 0 2.491-1.209 2.491-3.242zm3.556-4.714h1.848v1.61h.04a2.267 2.267 0 012.27-1.71c.221 0 .442.02.663.08v1.812a3.202 3.202 0 00-.864-.12 1.953 1.953 0 00-2.029 1.872c0 .1 0 .201.02.302v5.598h-1.948v-9.444zm13.719 6.648c-.261 1.712-1.928 2.88-4.057 2.88-2.732 0-4.44-1.833-4.44-4.793s1.708-4.873 4.359-4.873c2.612 0 4.239 1.793 4.239 4.652v.664h-6.649v.121a2.456 2.456 0 002.23 2.658c.1 0 .2.02.301 0 .944.08 1.828-.443 2.169-1.329l1.848.02zm-6.528-2.799h4.7a2.283 2.283 0 00-2.129-2.396h-.181a2.382 2.382 0 00-2.39 2.376v.02zM49.87 24.51c.01-.859.249-1.7.69-2.447a5.193 5.193 0 011.837-1.825 5.366 5.366 0 00-1.867-1.595 5.611 5.611 0 00-2.414-.625c-1.8-.18-3.547 1.034-4.464 1.034-.936 0-2.349-1.015-3.87-.985a5.877 5.877 0 00-2.784.796 5.576 5.576 0 00-2.013 2.01c-2.074 3.445-.527 8.508 1.46 11.293.994 1.364 2.155 2.887 3.676 2.833 1.487-.06 2.043-.91 3.838-.91 1.78 0 2.3.91 3.851.875 1.597-.025 2.602-1.37 3.562-2.746A11.097 11.097 0 0053 29.036a5.086 5.086 0 01-2.276-1.81 4.78 4.78 0 01-.855-2.716zm-3.16-9.034c.928-.97 1.384-2.217 1.274-3.476-1.417.13-2.726.72-3.666 1.653-.46.455-.811.986-1.036 1.56a4.068 4.068 0 00-.27 1.787 5.272 5.272 0 002.05-.392 4.643 4.643 0 001.648-1.132z" fill="#fff"/></svg>