<svg width="26" height="24" fill="none" xmlns="http://www.w3.org/2000/svg"><g clip-path="url(#clip0_16583_291505)" fill-rule="evenodd" clip-rule="evenodd" fill="#EE0766"><path d="M9.232 17.62l-.017-.009 4.85-3.413-3.331-3.803-4.859 3.421a5.94 5.94 0 01-.308-1.886c0-3.566 3.17-6.469 7.122-6.566L8.91 1.038C3.78 2.532.072 6.852.072 11.95c0 6.336 5.73 11.473 12.797 11.473.438 0 .872-.02 1.299-.059l-4.986-5.709.05-.035z"/><path d="M21.992 18.337a11.312 11.312 0 01-4.054 2.938l-.805.356-2.168-2.392 1.037-.32c1.35-.543 2.57-1.374 3.49-2.409.23-.258.44-.53.63-.813 1.024-1.532 1.206-3.383.973-5.197-.012-.093.002-.229-.02-.32-.127-.802-.671-1.19-1.41-1.1-.162.027-.256.086-.256.086l-4.182 3.023-2.124-2.361L17.291 6.8c.818-.647.08-1.318-.405-1.849l-.17-.189-.914-1.02-1.967-2.218.945.127.716.141a11.958 11.958 0 014.56 1.974c.267.19.523.39.77.601.985.844 1.85 1.814 2.484 2.885.158.267.302.542.43.822 1.185 3.083 1.025 6.755-1.133 9.495-.192.263-.398.52-.615.767zM12.868.478c-.432 0-.859.02-1.28.057l4.99 5.718L11.74 9.66l3.33 3.803 4.845-3.411c.198.595.305 1.226.305 1.879 0 3.585-3.205 6.5-7.186 6.567l3.808 4.36c5.122-1.498 8.823-5.815 8.823-10.907 0-6.336-5.73-11.473-12.797-11.473z"/></g><defs><clipPath id="clip0_16583_291505"><path fill="#fff" transform="translate(.072 .478)" d="M0 0h25.638v22.985H0z"/></clipPath></defs></svg>