<svg width="84" height="18" fill="none" xmlns="http://www.w3.org/2000/svg"><path d="M0 3.448C0 1.544 1.504 0 3.36 0h30.912v18H3.36C1.504 18 0 16.456 0 14.552V3.448z" fill="url(#paint0_linear_3681_42574)"/><path d="M84 3.448C84 1.544 82.496 0 80.64 0H34.272v18H80.64c1.856 0 3.36-1.544 3.36-3.448V3.448z" fill="url(#paint1_linear_3681_42574)"/><path d="M63.938 9.909V4.12h1.793v9.882c-.557 0-1.123.01-1.688-.012-.077-.003-.169-.16-.217-.264-.814-1.748-1.623-3.499-2.434-5.25a.952.952 0 00-.2-.303v5.804h-1.824V4.099c.569 0 1.115-.01 1.658.012.08.003.176.153.224.255.853 1.792 1.7 3.588 2.548 5.383l.088.17.052-.01zm8.179.509h-1.705c0-.571-.007-1.118.012-1.665.002-.052.16-.139.245-.14 1.008-.009 2.016.001 3.024-.01.258-.004.288.12.287.335-.004 1.356.001 2.712.004 4.069v.978h-1.477v-.77l-.118-.082c-.014.055-.016.119-.046.164a1.734 1.734 0 01-1.142.783c-1.837.377-3.326-.314-3.955-2.176-.406-1.2-.49-2.454-.366-3.707.071-.735.2-1.485.443-2.176.465-1.315 1.449-2.018 2.812-2.07.562-.021 1.158.001 1.687.172 1.264.407 1.83 1.425 1.992 2.72.027.212.029.428.043.661h-1.843c-.019-.15-.042-.295-.057-.44-.091-.908-.592-1.354-1.476-1.31-.89.045-1.428.465-1.619 1.36a9.04 9.04 0 00.004 3.762c.295 1.405 1.456 1.524 2.338 1.248.632-.199.984-.885.913-1.706zm9.013-6.321V6.01h-4.148v1.83h3.807v1.905h-3.8v2.31h4.248v1.93h-6.103v-.39c.004-3.034.013-6.067.006-9.101 0-.31.075-.408.39-.405 1.747.016 3.494.008 5.24.008h.36zM50.809 13.99h-1.81V9.747h-2.733v4.237h-1.814V4.1c.565 0 1.1-.01 1.633.013.058.003.154.194.155.298.013.987.008 1.976.009 2.963v.406h2.745V4.117h1.815v9.874zm-7.353-6.567h-1.718c-.033-.126-.074-.254-.099-.385-.209-1.157-.905-1.345-1.852-1.211-.66.093-1.075.524-1.23 1.163-.328 1.357-.364 2.73-.014 4.088.31 1.202 1.319 1.355 2.209 1.132.351-.089.562-.374.673-.715.116-.359.201-.728.311-1.137h1.769c-.098.97-.257 1.881-.816 2.656-.757 1.049-1.829 1.286-3.018 1.176-1.532-.141-2.49-1.013-2.88-2.512-.453-1.74-.489-3.498.007-5.237.472-1.653 1.634-2.503 3.31-2.52.946-.009 1.798.203 2.463.946.484.538.669 1.208.794 1.902.038.2.058.404.091.654zm15.103 6.574h-1.922c-.141-.57-.29-1.142-.421-1.717-.05-.223-.133-.326-.378-.319a33.8 33.8 0 01-1.813.003c-.227-.005-.336.055-.386.304-.115.57-.268 1.134-.411 1.718h-1.845c.024-.123.041-.241.072-.356.824-3.07 1.651-6.14 2.467-9.213.064-.24.148-.342.401-.326.39.023.785.026 1.175-.001.27-.019.363.098.43.343.804 2.934 1.617 5.865 2.427 8.797.067.242.129.485.204.767zm-3.58-6.862l-.093.001-.709 2.955h1.5l-.698-2.956z" fill="#333"/><path d="M4.1 4.071c.942 0 1.859-.003 2.775.002.469.003.945-.025 1.406.041 1.057.15 1.69.743 1.855 1.82.088.577.05 1.187-.025 1.77-.044.34-.27.657-.428 1.016.885.67.881 1.718.801 2.771a3.695 3.695 0 01-.275 1.125c-.402.953-1.21 1.34-2.152 1.375-1.307.05-2.616.013-3.956.013-.002-3.3-.002-6.589-.002-9.933zm1.855 7.979c.66 0 1.285.025 1.908-.008.492-.027.697-.21.735-.682a4.31 4.31 0 00-.086-1.187c-.033-.164-.241-.406-.381-.414-.72-.042-1.442-.02-2.175-.02l-.001 2.311zm.01-4.15c.61 0 1.2.008 1.789-.003.309-.006.515-.192.548-.5.037-.338.04-.684.019-1.023-.013-.227-.166-.384-.4-.387-.646-.009-1.291-.003-1.955-.003V7.9zm5.729-3.808h6.014v1.936h-4.146v1.786h3.808V9.78h-3.812v2.266h4.25v1.937h-6.113l-.001-9.891zM24.61 7.31h-1.728c-.026-.208-.06-.408-.076-.61-.051-.594-.4-.94-.98-.96a5.488 5.488 0 00-.37 0c-.886.034-1.085.47-1.029 1.287.024.34.279.484.563.556.586.147 1.176.27 1.762.417 1.465.365 2.11 1.18 2.145 2.732a6.68 6.68 0 01-.077 1.3c-.172.97-.722 1.65-1.64 1.962a4.526 4.526 0 01-2.777.07c-1.158-.34-1.751-1.213-1.955-2.388-.07-.4-.078-.812-.117-1.241h1.798c.042.26.072.53.13.793.239 1.071 1.656 1.573 2.475.861.416-.36.373-.889.325-1.38-.04-.404-.351-.569-.692-.653-.466-.117-.937-.209-1.406-.311a2.557 2.557 0 01-.163-.04c-1.544-.44-2.294-.984-2.205-3.26.05-1.306.71-2.123 1.867-2.423.747-.194 1.515-.232 2.253.002.383.121.766.34 1.07.608.66.585.98 1.703.827 2.677zm2.894 6.678V6.037h-2.188v-1.94h6.264v1.921h-2.182v7.97h-1.894z" fill="#fff"/><defs><linearGradient id="paint0_linear_3681_42574" x1="17.136" y1="0" x2="17.136" y2="18" gradientUnits="userSpaceOnUse"><stop stop-color="#494949"/><stop offset="1" stop-color="#161616"/></linearGradient><linearGradient id="paint1_linear_3681_42574" x1="66.864" y1="0" x2="66.864" y2="18" gradientUnits="userSpaceOnUse"><stop stop-color="#F2F2F2"/><stop offset="1" stop-color="#C1C1C1"/></linearGradient></defs></svg>