<svg width="17" height="17" fill="none" xmlns="http://www.w3.org/2000/svg"><g clip-path="url(#clip0_16583_291511)" fill="#FF5847"><path d="M8.49 2.113a6.303 6.303 0 016.294 6.303A6.304 6.304 0 018.49 14.71a6.303 6.303 0 01-6.303-6.294A6.303 6.303 0 018.49 2.113zm0-2.101a8.399 8.399 0 00-3.215 16.162A8.4 8.4 0 108.49.012z"/><path d="M8.49 6.307l2.1 2.11-2.1 2.101-2.111-2.1 2.11-2.111zm0-2.544a1.028 1.028 0 00-.73.301L4.14 7.685a1.03 1.03 0 000 1.457l3.62 3.621a1.025 1.025 0 001.124.224c.125-.052.239-.128.335-.224l3.62-3.62a1.03 1.03 0 000-1.458l-3.62-3.62a1.031 1.031 0 00-.73-.302z"/></g><defs><clipPath id="clip0_16583_291511"><path fill="#fff" transform="translate(.088 .015)" d="M0 0h16.797v16.797H0z"/></clipPath></defs></svg>