<svg width="30" height="30" fill="none" xmlns="http://www.w3.org/2000/svg"><path d="M16.25 11.25h-7.5m18.75 2.462v2.576c0 .687-.55 1.25-1.25 1.274H23.8c-1.35 0-2.587-.987-2.7-2.337a2.51 2.51 0 01.75-2.037c.463-.476 1.1-.75 1.8-.75h2.6c.7.024 1.25.587 1.25 1.274z" stroke="#fff" stroke-width="1.5" stroke-linecap="round" stroke-linejoin="round"/><path d="M21.85 13.188a2.51 2.51 0 00-.75 2.037c.112 1.35 1.35 2.338 2.7 2.338h2.45v1.812c0 3.75-2.5 6.25-6.25 6.25H8.75c-3.75 0-6.25-2.5-6.25-6.25v-8.75c0-3.4 2.05-5.775 5.237-6.175a6.66 6.66 0 011.013-.075H20c.325 0 .637.012.938.062 3.225.375 5.312 2.763 5.312 6.188v1.813h-2.6c-.7 0-1.337.274-1.8.75z" stroke="#fff" stroke-width="1.5" stroke-linecap="round" stroke-linejoin="round"/></svg>