<svg width="22" height="22" fill="none" xmlns="http://www.w3.org/2000/svg"><g clip-path="url(#clip0_16583_291504)"><path fill-rule="evenodd" clip-rule="evenodd" d="M15.63 4.693c3.033.266 5.428 2.714 5.588 5.747-.16-5.002-4.311-8.994-9.367-8.834-2.98.106-5.748 1.596-7.345 4.098C4.772 2.67 7.22.275 10.254.116c-5.056.212-8.941 4.523-8.728 9.58a8.986 8.986 0 003.991 7.13A6.068 6.068 0 01-.018 11.08c.107 5.003 4.311 8.994 9.314 8.888 2.98-.053 5.695-1.597 7.345-4.045-.267 2.98-2.715 5.322-5.695 5.482 5.003-.16 8.941-4.364 8.781-9.42-.106-2.927-1.596-5.695-4.098-7.291zm-5.056 9.899c-1.012 0-1.97-.373-2.661-1.118-1.49-1.49-1.437-3.885 0-5.322 1.437-1.437 3.885-1.437 5.322 0 1.437 1.437 1.437 3.885 0 5.322-.692.745-1.65 1.117-2.661 1.117z" fill="#69E2DC"/></g><defs><clipPath id="clip0_16583_291504"><path fill="#fff" transform="translate(0 .145)" d="M0 0h21.217v21.217H0z"/></clipPath></defs></svg>