<svg width="26" height="16" fill="none" xmlns="http://www.w3.org/2000/svg"><rect width="26" height="16" rx="2" fill="#fff"/><mask id="a" maskUnits="userSpaceOnUse" x="0" y="0" width="26" height="16"><rect width="26" height="16" rx="2" fill="#fff"/></mask><g mask="url(#a)"><path fill="#0A17A7" d="M0 0h26v16H0z"/><path fill-rule="evenodd" clip-rule="evenodd" d="M-1.19-1.533L9.904 4.915v-5.982h6.19v5.982L27.19-1.533 28.576.235l-8.773 5.098H26v5.334h-6.197l8.773 5.098-1.385 1.768-11.096-6.448v5.982h-6.19v-5.982l-11.096 6.448-1.385-1.769 8.773-5.097H0V5.333h6.197L-2.576.235l1.385-1.768z" fill="#fff"/><path d="M17.334 5.066L29.095-1.6M18.583 10.958l10.543 6.122M7.434 5.048L-3.563-1.337M8.626 10.884l-12.19 6.964" stroke="#DB1F35" stroke-width=".667" stroke-linecap="round"/><path fill-rule="evenodd" clip-rule="evenodd" d="M0 9.6h11.143V16h3.714V9.6H26V6.4H14.857V0h-3.714v6.4H0v3.2z" fill="#E6273E"/></g></svg>