<svg width="26" height="25" fill="none" xmlns="http://www.w3.org/2000/svg"><g clip-path="url(#clip0_16583_291509)" fill-rule="evenodd" clip-rule="evenodd" fill="#0CA4FB"><path d="M19.208 9.908c1.29 1.966-1.081 5.867-5.29 8.713-3.948 2.668-8.115 3.462-9.682 1.926a7.326 7.326 0 01-.297-.364c-.84-1.332-.036-3.531 1.867-5.691.227.165.507.262.807.262.773 0 1.4-.637 1.4-1.423a1.43 1.43 0 00-.212-.751c.454-.373.938-.734 1.448-1.078 4.212-2.846 8.67-3.56 9.96-1.594z"/><path d="M13.918 18.62c-3.948 2.67-8.115 3.463-9.682 1.927a1.872 1.872 0 01-.277-.333l-.02-.031c-.84-1.332-.036-3.531 1.867-5.691.227.165.507.262.807.262.773 0 1.4-.637 1.4-1.423a1.43 1.43 0 00-.212-.751c.454-.373.938-.734 1.448-1.078 4.212-2.846 8.67-3.56 9.96-1.594 1.288 1.966-1.082 5.867-5.291 8.713z"/><path d="M24.267 6.714c-2.57-1.795-8.264-.62-13.641 3.013a26.72 26.72 0 00-3.153 2.484 1.36 1.36 0 00-.86-.302c-.773 0-1.4.638-1.4 1.423 0 .339.117.649.313.893-1.272 1.494-2.18 3.002-2.64 4.382a12.454 12.454 0 01-1.597-6.129C1.29 5.644 6.748.102 13.48.102c4.679 0 8.745 2.68 10.788 6.612zm1.401 5.764c0 6.834-5.46 12.376-12.19 12.376a11.98 11.98 0 01-4.492-.867c2.575-.427 5.624-1.682 8.578-3.68 4.374-2.955 7.352-6.737 7.963-9.71.093.612.14 1.24.14 1.88z"/><path d="M13.918 18.62c-3.948 2.67-8.115 3.463-9.682 1.927a1.872 1.872 0 01-.277-.333l-.02-.031c-.84-1.332-.036-3.531 1.867-5.691.227.165.507.262.807.262.773 0 1.4-.637 1.4-1.423a1.43 1.43 0 00-.212-.751c.454-.373.938-.734 1.448-1.078 4.212-2.846 8.67-3.56 9.96-1.594 1.288 1.966-1.082 5.867-5.291 8.713z"/></g><defs><clipPath id="clip0_16583_291509"><path fill="#fff" transform="translate(.914 .102)" d="M0 0h24.754v24.754H0z"/></clipPath></defs></svg>