<svg width="31" height="30" fill="none" xmlns="http://www.w3.org/2000/svg"><path d="M9.404 22.938l3.875 3c.5.5 1.625.75 2.375.75h4.75c1.5 0 3.125-1.125 3.5-2.625l3-9.125c.625-1.75-.5-3.25-2.375-3.25h-5c-.75 0-1.375-.625-1.25-1.5l.625-4c.25-1.125-.5-2.375-1.625-2.75-1-.375-2.25.125-2.75.875l-5.125 7.625" stroke="#fff" stroke-width="1.5" stroke-miterlimit="10"/><path d="M3.03 22.938v-12.25c0-1.75.75-2.376 2.5-2.376h1.25c1.75 0 2.5.626 2.5 2.376v12.25c0 1.75-.75 2.375-2.5 2.375H5.53c-1.75 0-2.5-.625-2.5-2.375z" stroke="#fff" stroke-width="1.5" stroke-linecap="round" stroke-linejoin="round"/></svg>