<svg width="184" height="48" fill="none" xmlns="http://www.w3.org/2000/svg"><path d="M71 14.726c0 .903-.233 1.693-.817 2.258-.7.677-1.516 1.016-2.566 1.016-1.05 0-1.867-.339-2.567-1.016-.7-.678-1.05-1.468-1.05-2.484s.35-1.806 1.05-2.484c.7-.677 1.517-1.016 2.567-1.016.466 0 .933.113 1.4.339.466.226.816.451 1.05.79l-.584.565c-.466-.565-1.05-.79-1.866-.79-.7 0-1.4.225-1.867.79-.583.451-.817 1.129-.817 1.919s.234 1.468.817 1.92c.583.45 1.167.79 1.867.79.816 0 1.4-.226 1.983-.79.35-.34.583-.791.583-1.356h-2.566v-.903H71v.452zm5.833-2.909h-3.6v2.216h3.334v.817h-3.334v2.217h3.6V18h-4.666v-7h4.666v.817zM80.778 18h-.89v-6.183H78V11h4.667v.817h-1.89V18zm5.388 0v-7h1.167v7h-1.166zm6.346 0h-.91v-6.183h-1.936V11h4.667v.817h-1.935V18h.114zm11.305-1.016c-.677.677-1.467 1.016-2.484 1.016-1.016 0-1.806-.339-2.483-1.016-.678-.678-1.016-1.468-1.016-2.484s.338-1.806 1.016-2.484c.677-.677 1.467-1.016 2.483-1.016 1.017 0 1.807.339 2.484 1.016.678.678 1.016 1.468 1.016 2.484s-.338 1.806-1.016 2.484zm-4.29-.565c.452.452 1.129.79 1.806.79.678 0 1.355-.225 1.807-.79.452-.451.79-1.129.79-1.919s-.226-1.468-.79-1.92c-.452-.451-1.129-.79-1.807-.79-.677 0-1.354.226-1.806.79a2.724 2.724 0 00-.79 1.92c0 .79.226 1.468.79 1.92zM106 18v-7h1.141l3.678 5.483V11h1.014v7h-1.014l-3.931-5.717V18H106z" fill="#fff" stroke="#fff" stroke-width=".2" stroke-miterlimit="10"/><path d="M91.447 25.728c-2.44 0-4.371 1.81-4.371 4.325 0 2.415 1.931 4.326 4.37 4.326 2.44 0 4.372-1.811 4.372-4.326 0-2.615-1.931-4.325-4.371-4.325zm0 6.84c-1.322 0-2.44-1.106-2.44-2.615 0-1.51 1.118-2.616 2.44-2.616 1.321 0 2.44 1.006 2.44 2.616 0 1.509-1.119 2.615-2.44 2.615zm-9.454-6.84c-2.44 0-4.371 1.81-4.371 4.325 0 2.415 1.931 4.326 4.37 4.326 2.44 0 4.372-1.811 4.372-4.326 0-2.615-1.931-4.325-4.371-4.325zm0 6.84c-1.322 0-2.44-1.106-2.44-2.615 0-1.51 1.118-2.616 2.44-2.616 1.321 0 2.44 1.006 2.44 2.616 0 1.509-1.119 2.615-2.44 2.615zm-11.284-5.532v1.81h4.371c-.101 1.006-.508 1.81-1.016 2.314-.61.603-1.627 1.308-3.355 1.308-2.745 0-4.778-2.113-4.778-4.829 0-2.716 2.135-4.828 4.778-4.828 1.423 0 2.542.603 3.355 1.307l1.321-1.307C74.267 21.805 72.844 21 70.811 21 67.15 21 64 24.018 64 27.64c0 3.62 3.151 6.638 6.81 6.638 2.034 0 3.457-.603 4.677-1.911 1.22-1.207 1.627-2.917 1.627-4.225 0-.402 0-.805-.102-1.107h-6.303zm46.152 1.408c-.407-1.006-1.424-2.716-3.66-2.716s-4.066 1.71-4.066 4.325c0 2.415 1.83 4.326 4.269 4.326 1.932 0 3.152-1.207 3.558-1.911l-1.423-1.007c-.508.705-1.118 1.208-2.135 1.208-1.016 0-1.626-.403-2.134-1.308l5.794-2.414-.203-.503zm-5.896 1.408c0-1.61 1.321-2.515 2.236-2.515.712 0 1.423.403 1.626.906l-3.862 1.61zm-4.778 4.124h1.931V21.402h-1.931v12.574zm-3.05-7.343c-.508-.503-1.321-1.006-2.338-1.006-2.135 0-4.168 1.912-4.168 4.326a4.187 4.187 0 004.168 4.225c1.017 0 1.83-.503 2.236-1.006h.102v.603c0 1.61-.915 2.515-2.338 2.515-1.118 0-1.931-.805-2.135-1.509l-1.626.704C97.546 36.592 98.766 38 100.9 38c2.236 0 4.066-1.308 4.066-4.426v-7.645h-1.83v.704zm-2.236 5.935c-1.322 0-2.44-1.106-2.44-2.615 0-1.51 1.118-2.616 2.44-2.616 1.321 0 2.338 1.107 2.338 2.616 0 1.509-1.017 2.615-2.338 2.615zm24.803-11.166h-4.574v12.574h1.931V29.25h2.643c2.135 0 4.168-1.51 4.168-3.924 0-2.414-2.033-3.923-4.168-3.923zm.102 6.036h-2.745v-4.326h2.745c1.423 0 2.237 1.208 2.237 2.113-.102 1.106-.915 2.213-2.237 2.213zm11.69-1.81c-1.423 0-2.846.603-3.354 1.91l1.728.705c.407-.704 1.017-.906 1.728-.906 1.017 0 1.932.604 2.033 1.61v.1c-.305-.2-1.118-.503-1.931-.503-1.83 0-3.66 1.006-3.66 2.817 0 1.71 1.525 2.817 3.151 2.817 1.322 0 1.932-.604 2.44-1.208h.102v1.006h1.83v-4.828c-.204-2.213-1.932-3.52-4.067-3.52zm-.203 6.94c-.61 0-1.525-.302-1.525-1.106 0-1.006 1.119-1.308 2.033-1.308.814 0 1.22.201 1.729.402-.204 1.207-1.22 2.012-2.237 2.012zm10.674-6.639l-2.135 5.432h-.101l-2.237-5.432h-2.033l3.355 7.645-1.932 4.225h1.932L150 25.929h-2.033zm-17.078 8.047h1.931V21.402h-1.931v12.574z" fill="#fff"/><path d="M34.4 11c-.3.3-.4.8-.4 1.4v22.1c0 .6.2 1.1.5 1.4l.1.1L47 23.6v-.2L34.4 11z" fill="url(#paint0_linear)"/><path d="M50.04 28L46 23.659v-.318L50.04 19l.098.106 4.828 2.965c1.379.847 1.379 2.223 0 3.07L50.038 28z" fill="url(#paint1_linear)"/><path d="M51 28.236L46.725 24 34 36.608c.509.504 1.222.504 2.138.101L51 28.236z" fill="url(#paint2_linear)"/><path d="M51 19.744l-14.862-8.41c-.916-.508-1.629-.406-2.138.1L46.725 24 51 19.744z" fill="url(#paint3_linear)"/><path opacity=".12" d="M34.8 36.867c-.6-.4-.8-1.067-.8-1.867v.133c0 .8.4 1.467 1 1.867v-.133h-.2z" fill="#141A2E"/><defs><linearGradient id="paint0_linear" x1="45.8" y1="12.21" x2="29.017" y2="28.992" gradientUnits="userSpaceOnUse"><stop stop-color="#00A0FF"/><stop offset=".007" stop-color="#00A1FF"/><stop offset=".26" stop-color="#00BEFF"/><stop offset=".512" stop-color="#00D2FF"/><stop offset=".76" stop-color="#00DFFF"/><stop offset="1" stop-color="#00E3FF"/></linearGradient><linearGradient id="paint1_linear" x1="56.773" y1="23.448" x2="32.933" y2="23.448" gradientUnits="userSpaceOnUse"><stop stop-color="#FFE000"/><stop offset=".409" stop-color="#FFBD00"/><stop offset=".775" stop-color="orange"/><stop offset="1" stop-color="#FF9C00"/></linearGradient><linearGradient id="paint2_linear" x1="48.686" y1="26.316" x2="25.732" y2="49.482" gradientUnits="userSpaceOnUse"><stop stop-color="#FF3A44"/><stop offset="1" stop-color="#C31162"/></linearGradient><linearGradient id="paint3_linear" x1="30.841" y1="3.911" x2="41.14" y2="14.256" gradientUnits="userSpaceOnUse"><stop stop-color="#32A071"/><stop offset=".069" stop-color="#2DA771"/><stop offset=".476" stop-color="#15CF74"/><stop offset=".801" stop-color="#06E775"/><stop offset="1" stop-color="#00F076"/></linearGradient></defs></svg>