<svg width="28" height="21" fill="none" xmlns="http://www.w3.org/2000/svg"><g clip-path="url(#clip0)"><path d="M16.975 3.8H9.748v13.14h7.227V3.8z" fill="#FF5F00"/><path d="M10.208 10.376a8.422 8.422 0 01.829-3.652 8.325 8.325 0 012.325-2.916 8.176 8.176 0 00-8.714-.946 8.293 8.293 0 00-3.39 3.083A8.428 8.428 0 000 10.378c0 1.567.436 3.104 1.258 4.432a8.294 8.294 0 003.39 3.083 8.176 8.176 0 008.714-.946 8.325 8.325 0 01-2.326-2.917 8.422 8.422 0 01-.828-3.654z" fill="#EB001B"/><path d="M26.726 10.375a8.428 8.428 0 01-1.258 4.433 8.292 8.292 0 01-3.392 3.083 8.176 8.176 0 01-8.714-.947 8.34 8.34 0 002.325-2.918 8.437 8.437 0 000-7.304 8.338 8.338 0 00-2.325-2.917 8.176 8.176 0 018.715-.946A8.294 8.294 0 0125.47 5.94a8.428 8.428 0 011.257 4.434zm-.793 5.175v-.27h.107v-.054h-.268v.056h.108v.27l.053-.003zm.53 0v-.326h-.072l-.096.232-.096-.232h-.085v.325h.048v-.244l.09.212h.061l.09-.212v.246l.06-.002z" fill="#F79E1B"/></g><defs><clipPath id="clip0"><path fill="#fff" transform="translate(0 .307)" d="M0 0h27.235v20.426H0z"/></clipPath></defs></svg>