<?xml version="1.0" encoding="UTF-8" standalone="no" ?>
<!DOCTYPE svg PUBLIC "-//W3C//DTD SVG 1.1//EN" "http://www.w3.org/Graphics/SVG/1.1/DTD/svg11.dtd">
<svg xmlns="http://www.w3.org/2000/svg" xmlns:xlink="http://www.w3.org/1999/xlink" version="1.1" width="1080" height="1080" viewBox="0 0 1080 1080" xml:space="preserve">
<desc>Created with Fabric.js 5.2.4</desc>
<defs>
</defs>
<rect x="0" y="0" width="100%" height="100%" fill="transparent"></rect>
<g transform="matrix(1 0 0 1 540 540)" id="af326e92-d4d9-4f01-928d-29decdaa545c"  >
<rect style="stroke: none; stroke-width: 1; stroke-dasharray: none; stroke-linecap: butt; stroke-dashoffset: 0; stroke-linejoin: miter; stroke-miterlimit: 4; fill: rgb(255,255,255); fill-rule: nonzero; opacity: 1; visibility: hidden;" vector-effect="non-scaling-stroke"  x="-540" y="-540" rx="0" ry="0" width="1080" height="1080" />
</g>
<g transform="matrix(0 0 0 0 0 0)" id="e964ab1a-7d85-4473-914c-313848a5d93e"  >
</g>
<g transform="matrix(1 0 0 1 569.83 827.54)"  >
<g style="" vector-effect="non-scaling-stroke"   >
		<g transform="matrix(1 0 0 1 -391.9 -827.66)"  >
<path style="stroke: none; stroke-width: 1; stroke-dasharray: none; stroke-linecap: butt; stroke-dashoffset: 0; stroke-linejoin: miter; stroke-miterlimit: 4; fill: rgb(24,230,100); fill-rule: nonzero; opacity: 1;" vector-effect="non-scaling-stroke"  transform=" translate(-340, -219)" d="M 340 151 C 377.555 151 408 181.445 408 219 C 408 256.555 377.555 287 340 287 C 302.445 287 272 256.555 272 219 C 272 181.445 302.445 151 340 151 Z" stroke-linecap="round" />
</g>
		<g transform="matrix(0.7 0.71 -0.71 0.7 902.78 234.49)"  >
<rect style="stroke: none; stroke-width: 1; stroke-dasharray: none; stroke-linecap: butt; stroke-dashoffset: 0; stroke-linejoin: miter; stroke-miterlimit: 4; fill: rgb(24,230,100); fill-rule: nonzero; opacity: 1;" vector-effect="non-scaling-stroke"  x="-485.82" y="-257.66" rx="257.66" ry="257.66" width="971.64" height="515.32" />
</g>
		<g transform="matrix(0.7 0.71 -0.71 0.7 1028.99 -221.7)"  >
<rect style="stroke: none; stroke-width: 1; stroke-dasharray: none; stroke-linecap: butt; stroke-dashoffset: 0; stroke-linejoin: miter; stroke-miterlimit: 4; fill: rgb(24,230,100); fill-rule: nonzero; opacity: 1;" vector-effect="non-scaling-stroke"  x="-506.41" y="-316.495" rx="316.496" ry="316.496" width="1012.82" height="632.99" />
</g>
		<g transform="matrix(0.7 0.71 -0.71 0.7 -815.3 97.4)"  >
<rect style="stroke: none; stroke-width: 1; stroke-dasharray: none; stroke-linecap: butt; stroke-dashoffset: 0; stroke-linejoin: miter; stroke-miterlimit: 4; fill: rgb(24,230,100); fill-rule: nonzero; opacity: 1;" vector-effect="non-scaling-stroke"  x="-731.465" y="-394.715" rx="394.716" ry="394.716" width="1462.93" height="789.43" />
</g>
		<g transform="matrix(0.7 0.71 -0.71 0.7 -596.4 -283.94)"  >
<rect style="stroke: none; stroke-width: 1; stroke-dasharray: none; stroke-linecap: butt; stroke-dashoffset: 0; stroke-linejoin: miter; stroke-miterlimit: 4; fill: rgb(24,230,100); fill-rule: nonzero; opacity: 1;" vector-effect="non-scaling-stroke"  x="-265.475" y="-187.025" rx="187.026" ry="187.026" width="530.95" height="374.05" />
</g>
		<g transform="matrix(0.7 0.71 -0.71 0.7 314.88 -65.88)"  >
<rect style="stroke: none; stroke-width: 1; stroke-dasharray: none; stroke-linecap: butt; stroke-dashoffset: 0; stroke-linejoin: miter; stroke-miterlimit: 4; fill: rgb(24,230,100); fill-rule: nonzero; opacity: 1;" vector-effect="non-scaling-stroke"  x="-122.175" y="-122.175" rx="122.174" ry="122.174" width="244.35" height="244.35" />
</g>
		<g transform="matrix(1 0 0 1 444.1 -697.66)"  >
<path style="stroke: none; stroke-width: 1; stroke-dasharray: none; stroke-linecap: butt; stroke-dashoffset: 0; stroke-linejoin: miter; stroke-miterlimit: 4; fill: rgb(24,230,100); fill-rule: nonzero; opacity: 1;" vector-effect="non-scaling-stroke"  transform=" translate(-1176, -349)" d="M 1176.56 191 C 1263.82 191 1334 261.181 1334 348.442 C 1334 435.703 1263.82 507 1176.56 507 C 1089.3 507 1018 435.703 1018 348.442 C 1018 261.181 1089.3 191 1176.56 191 Z" stroke-linecap="round" />
</g>
</g>
</g>
<g transform="matrix(0 0 0 0 0 0)"  >
<g style=""   >
</g>
</g>
<g transform="matrix(0 0 0 0 0 0)"  >
<g style=""   >
</g>
</g>
<g transform="matrix(0 0 0 0 0 0)"  >
<g style=""   >
</g>
</g>
<g transform="matrix(0 0 0 0 0 0)"  >
<g style=""   >
</g>
</g>
<g transform="matrix(0 0 0 0 0 0)"  >
<g style=""   >
</g>
</g>
<g transform="matrix(0 0 0 0 0 0)"  >
<g style=""   >
</g>
</g>
<g transform="matrix(NaN NaN NaN NaN 0 0)"  >
<g style=""   >
</g>
</g>
</svg>