<svg xmlns="http://www.w3.org/2000/svg" xmlns:xlink="http://www.w3.org/1999/xlink" viewBox="0 0 500 500" width="500" height="500" preserveAspectRatio="xMidYMid meet" style="width: 100%; height: 100%; transform: translate3d(0px, 0px, 0px); content-visibility: visible;"><defs><clipPath id="__lottie_element_2"><rect width="500" height="500" x="0" y="0"></rect></clipPath><clipPath id="__lottie_element_4"><path d="M0,0 L500,0 L500,500 L0,500z"></path></clipPath><clipPath id="__lottie_element_8"><path d="M0,0 L30,0 L30,30 L0,30z"></path></clipPath><clipPath id="__lottie_element_12"><path d="M0,0 L30,0 L30,30 L0,30z"></path></clipPath><clipPath id="__lottie_element_16"><path d="M0,0 L30,0 L30,30 L0,30z"></path></clipPath><clipPath id="__lottie_element_20"><path d="M0,0 L30,0 L30,30 L0,30z"></path></clipPath><clipPath id="__lottie_element_24"><path d="M0,0 L30,0 L30,30 L0,30z"></path></clipPath><clipPath id="__lottie_element_28"><path d="M0,0 L30,0 L30,30 L0,30z"></path></clipPath><clipPath id="__lottie_element_32"><path d="M0,0 L30,0 L30,30 L0,30z"></path></clipPath><clipPath id="__lottie_element_36"><path d="M0,0 L30,0 L30,30 L0,30z"></path></clipPath><clipPath id="__lottie_element_40"><path d="M0,0 L30,0 L30,30 L0,30z"></path></clipPath><clipPath id="__lottie_element_44"><path d="M0,0 L30,0 L30,30 L0,30z"></path></clipPath><clipPath id="__lottie_element_48"><path d="M0,0 L30,0 L30,30 L0,30z"></path></clipPath><clipPath id="__lottie_element_52"><path d="M0,0 L30,0 L30,30 L0,30z"></path></clipPath><clipPath id="__lottie_element_56"><path d="M0,0 L30,0 L30,30 L0,30z"></path></clipPath><clipPath id="__lottie_element_60"><path d="M0,0 L30,0 L30,30 L0,30z"></path></clipPath><clipPath id="__lottie_element_64"><path d="M0,0 L30,0 L30,30 L0,30z"></path></clipPath><clipPath id="__lottie_element_68"><path d="M0,0 L30,0 L30,30 L0,30z"></path></clipPath></defs><g clip-path="url(#__lottie_element_2)"><g clip-path="url(#__lottie_element_4)" transform="matrix(1,0,0,1,0,0)" opacity="1" style="display: block;"><g clip-path="url(#__lottie_element_8)" transform="matrix(0,0,0,0,250,250)" opacity="1" style="display: block;"><g transform="matrix(1.399999976158142,0,0,1.7040300369262695,-431.3885803222656,-382.3644714355469)" opacity="1" style="display: block;"><path fill="rgb(242,99,47)" fill-opacity="1" d=" M312.0790100097656,235.9980010986328 C312.0790100097656,235.9980010986328 310.5740051269531,228.39500427246094 310.5740051269531,228.39500427246094 C310.5740051269531,228.39500427246094 321.8580017089844,227.3300018310547 327.1239929199219,229.90499877929688 C327.1239929199219,229.90499877929688 327.1239929199219,238.20599365234375 327.1239929199219,238.20599365234375 C327.1239929199219,238.20599365234375 319.60101318359375,234.93699645996094 312.0790100097656,235.9980010986328z"></path></g></g><g clip-path="url(#__lottie_element_12)" transform="matrix(0,0,0,0,250,250)" opacity="1" style="display: block;"><g transform="matrix(1.399999976158142,0,0,1.7040300369262695,-431.3885803222656,-382.3644714355469)" opacity="1" style="display: block;"><path fill="rgb(242,99,47)" fill-opacity="1" d=" M312.0790100097656,235.9980010986328 C312.0790100097656,235.9980010986328 310.5740051269531,228.39500427246094 310.5740051269531,228.39500427246094 C310.5740051269531,228.39500427246094 321.8580017089844,227.3300018310547 327.1239929199219,229.90499877929688 C327.1239929199219,229.90499877929688 327.1239929199219,238.20599365234375 327.1239929199219,238.20599365234375 C327.1239929199219,238.20599365234375 319.60101318359375,234.93699645996094 312.0790100097656,235.9980010986328z"></path></g></g><g clip-path="url(#__lottie_element_16)" transform="matrix(0,0,0,0,250,250)" opacity="1" style="display: block;"><g transform="matrix(1.399999976158142,0,0,1.7040300369262695,-431.3885803222656,-382.3644714355469)" opacity="1" style="display: block;"><path fill="rgb(242,99,47)" fill-opacity="1" d=" M312.0790100097656,235.9980010986328 C312.0790100097656,235.9980010986328 310.5740051269531,228.39500427246094 310.5740051269531,228.39500427246094 C310.5740051269531,228.39500427246094 321.8580017089844,227.3300018310547 327.1239929199219,229.90499877929688 C327.1239929199219,229.90499877929688 327.1239929199219,238.20599365234375 327.1239929199219,238.20599365234375 C327.1239929199219,238.20599365234375 319.60101318359375,234.93699645996094 312.0790100097656,235.9980010986328z"></path></g></g><g clip-path="url(#__lottie_element_20)" transform="matrix(0,0,0,0,250,250)" opacity="1" style="display: block;"><g transform="matrix(1.399999976158142,0,0,1.7040300369262695,-431.3885803222656,-382.3644714355469)" opacity="1" style="display: block;"><path fill="rgb(242,99,47)" fill-opacity="1" d=" M312.0790100097656,235.9980010986328 C312.0790100097656,235.9980010986328 310.5740051269531,228.39500427246094 310.5740051269531,228.39500427246094 C310.5740051269531,228.39500427246094 321.8580017089844,227.3300018310547 327.1239929199219,229.90499877929688 C327.1239929199219,229.90499877929688 327.1239929199219,238.20599365234375 327.1239929199219,238.20599365234375 C327.1239929199219,238.20599365234375 319.60101318359375,234.93699645996094 312.0790100097656,235.9980010986328z"></path></g></g><g clip-path="url(#__lottie_element_24)" transform="matrix(0,0,0,0,250,250)" opacity="1" style="display: block;"><g transform="matrix(1.399999976158142,0,0,1.7040300369262695,-431.3885803222656,-382.3644714355469)" opacity="1" style="display: block;"><path fill="rgb(242,99,47)" fill-opacity="1" d=" M312.0790100097656,235.9980010986328 C312.0790100097656,235.9980010986328 310.5740051269531,228.39500427246094 310.5740051269531,228.39500427246094 C310.5740051269531,228.39500427246094 321.8580017089844,227.3300018310547 327.1239929199219,229.90499877929688 C327.1239929199219,229.90499877929688 327.1239929199219,238.20599365234375 327.1239929199219,238.20599365234375 C327.1239929199219,238.20599365234375 319.60101318359375,234.93699645996094 312.0790100097656,235.9980010986328z"></path></g></g><g clip-path="url(#__lottie_element_28)" transform="matrix(0,0,0,0,250,250)" opacity="1" style="display: block;"><g transform="matrix(1.5817400217056274,0,0,1.9252400398254395,-489.3362121582031,-433.9486389160156)" opacity="1" style="display: block;"><path fill="rgb(242,44,97)" fill-opacity="1" d=" M313.197998046875,238.0749969482422 C313.197998046875,238.0749969482422 313.78399658203125,230.5919952392578 313.78399658203125,230.5919952392578 C313.78399658203125,230.5919952392578 317.7309875488281,229.7949981689453 323.5740051269531,228.46600341796875 C323.5740051269531,228.46600341796875 326.78399658203125,236.2480010986328 326.78399658203125,236.2480010986328 C326.78399658203125,236.2480010986328 316.90399169921875,237.66600036621094 313.197998046875,238.0749969482422z"></path></g></g><g clip-path="url(#__lottie_element_32)" transform="matrix(0,0,0,0,250,250)" opacity="1" style="display: block;"><g transform="matrix(1.5817400217056274,0,0,1.9252400398254395,-489.3362121582031,-433.9486389160156)" opacity="1" style="display: block;"><path fill="rgb(242,44,97)" fill-opacity="1" d=" M313.197998046875,238.0749969482422 C313.197998046875,238.0749969482422 313.78399658203125,230.5919952392578 313.78399658203125,230.5919952392578 C313.78399658203125,230.5919952392578 317.7309875488281,229.7949981689453 323.5740051269531,228.46600341796875 C323.5740051269531,228.46600341796875 326.78399658203125,236.2480010986328 326.78399658203125,236.2480010986328 C326.78399658203125,236.2480010986328 316.90399169921875,237.66600036621094 313.197998046875,238.0749969482422z"></path></g></g><g clip-path="url(#__lottie_element_36)" transform="matrix(0,0,0,0,250,250)" opacity="1" style="display: block;"><g transform="matrix(1.5817400217056274,0,0,1.9252400398254395,-489.3362121582031,-433.9486389160156)" opacity="1" style="display: block;"><path fill="rgb(242,44,97)" fill-opacity="1" d=" M313.197998046875,238.0749969482422 C313.197998046875,238.0749969482422 313.78399658203125,230.5919952392578 313.78399658203125,230.5919952392578 C313.78399658203125,230.5919952392578 317.7309875488281,229.7949981689453 323.5740051269531,228.46600341796875 C323.5740051269531,228.46600341796875 326.78399658203125,236.2480010986328 326.78399658203125,236.2480010986328 C326.78399658203125,236.2480010986328 316.90399169921875,237.66600036621094 313.197998046875,238.0749969482422z"></path></g></g><g clip-path="url(#__lottie_element_40)" transform="matrix(0,0,0,0,250,250)" opacity="1" style="display: block;"><g transform="matrix(1.5817400217056274,0,0,1.9252400398254395,-489.3362121582031,-433.9486389160156)" opacity="1" style="display: block;"><path fill="rgb(242,44,97)" fill-opacity="1" d=" M313.197998046875,238.0749969482422 C313.197998046875,238.0749969482422 313.78399658203125,230.5919952392578 313.78399658203125,230.5919952392578 C313.78399658203125,230.5919952392578 317.7309875488281,229.7949981689453 323.5740051269531,228.46600341796875 C323.5740051269531,228.46600341796875 326.78399658203125,236.2480010986328 326.78399658203125,236.2480010986328 C326.78399658203125,236.2480010986328 316.90399169921875,237.66600036621094 313.197998046875,238.0749969482422z"></path></g></g><g clip-path="url(#__lottie_element_44)" transform="matrix(0,0,0,0,250,250)" opacity="1" style="display: block;"><g transform="matrix(1.5817400217056274,0,0,1.9252400398254395,-489.6051330566406,-435.96630859375)" opacity="1" style="display: block;"><path fill="rgb(110,44,242)" fill-opacity="1" d=" M314.072998046875,237.2760009765625 C314.072998046875,237.2760009765625 313.20001220703125,229.11399841308594 313.20001220703125,229.11399841308594 C313.20001220703125,229.11399841308594 317.4880065917969,230.15499877929688 324.8389892578125,231.66299438476562 C324.8389892578125,231.66299438476562 324.7900085449219,239.36399841308594 324.7900085449219,239.36399841308594 C324.7900085449219,239.36399841308594 316.7090148925781,237.8260040283203 314.072998046875,237.2760009765625z"></path></g></g><g clip-path="url(#__lottie_element_48)" transform="matrix(0,0,0,0,250,250)" opacity="1" style="display: block;"><g transform="matrix(1.5817400217056274,0,0,1.9252400398254395,-489.6051330566406,-435.96630859375)" opacity="1" style="display: block;"><path fill="rgb(110,44,242)" fill-opacity="1" d=" M314.072998046875,237.2760009765625 C314.072998046875,237.2760009765625 313.20001220703125,229.11399841308594 313.20001220703125,229.11399841308594 C313.20001220703125,229.11399841308594 317.4880065917969,230.15499877929688 324.8389892578125,231.66299438476562 C324.8389892578125,231.66299438476562 324.7900085449219,239.36399841308594 324.7900085449219,239.36399841308594 C324.7900085449219,239.36399841308594 316.7090148925781,237.8260040283203 314.072998046875,237.2760009765625z"></path></g></g><g clip-path="url(#__lottie_element_52)" transform="matrix(0,0,0,0,250,250)" opacity="1" style="display: block;"><g transform="matrix(1.5817400217056274,0,0,1.9252400398254395,-489.6051330566406,-435.96630859375)" opacity="1" style="display: block;"><path fill="rgb(110,44,242)" fill-opacity="1" d=" M314.072998046875,237.2760009765625 C314.072998046875,237.2760009765625 313.20001220703125,229.11399841308594 313.20001220703125,229.11399841308594 C313.20001220703125,229.11399841308594 317.4880065917969,230.15499877929688 324.8389892578125,231.66299438476562 C324.8389892578125,231.66299438476562 324.7900085449219,239.36399841308594 324.7900085449219,239.36399841308594 C324.7900085449219,239.36399841308594 316.7090148925781,237.8260040283203 314.072998046875,237.2760009765625z"></path></g></g><g clip-path="url(#__lottie_element_56)" transform="matrix(0,0,0,0,250,250)" opacity="1" style="display: block;"><g transform="matrix(1.5817400217056274,0,0,1.9252400398254395,-489.6051330566406,-435.96630859375)" opacity="1" style="display: block;"><path fill="rgb(110,44,242)" fill-opacity="1" d=" M314.072998046875,237.2760009765625 C314.072998046875,237.2760009765625 313.20001220703125,229.11399841308594 313.20001220703125,229.11399841308594 C313.20001220703125,229.11399841308594 317.4880065917969,230.15499877929688 324.8389892578125,231.66299438476562 C324.8389892578125,231.66299438476562 324.7900085449219,239.36399841308594 324.7900085449219,239.36399841308594 C324.7900085449219,239.36399841308594 316.7090148925781,237.8260040283203 314.072998046875,237.2760009765625z"></path></g></g><g clip-path="url(#__lottie_element_60)" transform="matrix(0,0,0,0,250,250)" opacity="1" style="display: block;"><g transform="matrix(1.301740050315857,0,0,1.5844299793243408,-400.0585021972656,-354.47479248046875)" opacity="1" style="display: block;"><path fill="rgb(45,125,255)" fill-opacity="1" d=" M312.0790100097656,235.9980010986328 C312.0790100097656,235.9980010986328 310.5740051269531,228.39500427246094 310.5740051269531,228.39500427246094 C310.5740051269531,228.39500427246094 321.8580017089844,227.3300018310547 327.1239929199219,229.90499877929688 C327.1239929199219,229.90499877929688 327.1239929199219,238.20599365234375 327.1239929199219,238.20599365234375 C327.1239929199219,238.20599365234375 319.60101318359375,234.93699645996094 312.0790100097656,235.9980010986328z"></path></g></g><g clip-path="url(#__lottie_element_64)" transform="matrix(0,0,0,0,250,250)" opacity="1" style="display: block;"><g transform="matrix(1.301740050315857,0,0,1.5844299793243408,-400.0585021972656,-354.47479248046875)" opacity="1" style="display: block;"><path fill="rgb(45,125,255)" fill-opacity="1" d=" M312.0790100097656,235.9980010986328 C312.0790100097656,235.9980010986328 310.5740051269531,228.39500427246094 310.5740051269531,228.39500427246094 C310.5740051269531,228.39500427246094 321.8580017089844,227.3300018310547 327.1239929199219,229.90499877929688 C327.1239929199219,229.90499877929688 327.1239929199219,238.20599365234375 327.1239929199219,238.20599365234375 C327.1239929199219,238.20599365234375 319.60101318359375,234.93699645996094 312.0790100097656,235.9980010986328z"></path></g></g><g clip-path="url(#__lottie_element_68)" transform="matrix(0,0,0,0,250,250)" opacity="1" style="display: block;"><g transform="matrix(1.301740050315857,0,0,1.5844299793243408,-400.0585021972656,-354.47479248046875)" opacity="1" style="display: block;"><path fill="rgb(45,125,255)" fill-opacity="1" d=" M312.0790100097656,235.9980010986328 C312.0790100097656,235.9980010986328 310.5740051269531,228.39500427246094 310.5740051269531,228.39500427246094 C310.5740051269531,228.39500427246094 321.8580017089844,227.3300018310547 327.1239929199219,229.90499877929688 C327.1239929199219,229.90499877929688 327.1239929199219,238.20599365234375 327.1239929199219,238.20599365234375 C327.1239929199219,238.20599365234375 319.60101318359375,234.93699645996094 312.0790100097656,235.9980010986328z"></path></g></g></g></g></svg>